<svg width="256" height="256" viewBox="0 0 256 256" fill="none" xmlns="http://www.w3.org/2000/svg">
<path d="M128 146.62L254.036 68.6315V50.6447C254.036 46.1775 250.414 42.5588 245.95 42.5588H10.0498C5.5853 42.5588 1.96387 46.1775 1.96387 50.6447V68.6315L128 146.62Z" fill="white"/>
<path d="M130.21 155.134C130.179 155.154 130.145 155.157 130.117 155.176C129.893 155.308 129.652 155.4 129.409 155.487C129.297 155.526 129.193 155.585 129.078 155.616C128.756 155.703 128.426 155.742 128.09 155.75C128.059 155.75 128.031 155.762 128.003 155.762H128H127.997C127.966 155.762 127.938 155.75 127.91 155.75C127.577 155.742 127.244 155.7 126.922 155.616C126.81 155.585 126.703 155.526 126.591 155.487C126.347 155.4 126.109 155.308 125.882 155.176C125.852 155.159 125.818 155.154 125.79 155.134L1.96387 78.5127V205.358C1.96387 209.823 5.5853 213.444 10.0498 213.444H245.95C250.414 213.444 254.036 209.823 254.036 205.358V78.5127L130.21 155.134Z" fill="white"/>
</svg>
