<svg width="75" height="30" viewBox="0 0 75 30" fill="none" xmlns="http://www.w3.org/2000/svg">
<path d="M1.77416 23.8501C1.00349 23.4874 0.618164 22.9434 0.618164 22.2181C0.618164 21.9914 0.652164 21.7648 0.720164 21.5381C0.901498 20.7221 1.23016 19.5548 1.70616 18.0361C2.20483 16.5174 2.64683 15.3728 3.03216 14.6021C3.19083 14.3301 3.31549 14.0468 3.40616 13.7521C3.49683 13.4574 3.55349 13.2648 3.57616 13.1741C3.68949 12.7661 3.75749 12.5281 3.78016 12.4601L3.74616 12.1201C3.74616 12.0294 3.76883 11.9388 3.81416 11.8481C3.85949 11.7574 3.93883 11.6554 4.05216 11.5421C4.36949 11.2701 4.70949 10.7374 5.07216 9.94412L6.36416 6.23812L6.77216 5.08212C6.79483 4.99145 6.84016 4.83279 6.90816 4.60612C6.97616 4.37945 7.01016 4.22079 7.01016 4.13012C7.01016 4.03945 6.98749 3.99412 6.94216 3.99412C6.76083 4.03945 6.39816 4.07345 5.85416 4.09612C5.58216 4.14145 5.37816 4.17545 5.24216 4.19812C5.10616 4.19812 5.00416 4.20945 4.93616 4.23212H4.69816C4.26749 4.23212 4.05216 4.07345 4.05216 3.75612C4.12016 3.34812 4.25616 2.96279 4.46016 2.60012C4.68683 2.23745 4.95883 2.04478 5.27616 2.02212L6.60216 1.71612C6.80616 1.67079 7.08949 1.64812 7.45216 1.64812C7.76949 1.64812 8.09816 1.68212 8.43816 1.75012C8.71016 1.56879 8.85749 1.41012 8.88016 1.27412C8.97083 0.888781 9.17483 0.582781 9.49216 0.356115C9.80949 0.129447 10.1382 0.0161133 10.4782 0.0161133C10.7502 0.0161133 10.9769 0.095447 11.1582 0.254114C11.3395 0.390114 11.4302 0.605447 11.4302 0.900114C11.4302 1.03612 11.4189 1.13812 11.3962 1.20612C11.3962 1.22879 11.3962 1.27412 11.3962 1.34212C11.3962 1.38745 11.4642 1.41012 11.6002 1.41012C11.8269 1.41012 12.4955 1.28545 13.6062 1.03612C13.7875 1.01345 14.0935 0.990781 14.5242 0.968115C14.9775 0.922781 15.3515 0.900114 15.6462 0.900114C16.0769 0.900114 16.4055 0.934114 16.6322 1.00212C16.8362 0.95678 17.0175 0.934113 17.1762 0.934113C17.3349 0.934113 17.4709 0.92278 17.5842 0.900114C17.9695 0.900114 18.2075 0.866114 18.2982 0.798113C18.5022 0.843447 18.7289 0.888781 18.9782 0.934113C19.2502 0.956781 19.4429 0.990781 19.5562 1.03612C19.6695 1.08145 19.7715 1.13812 19.8622 1.20612C19.9302 1.29679 19.9642 1.37612 19.9642 1.44412C19.9642 1.51212 19.9529 1.55745 19.9302 1.58012L19.8622 1.54612C19.8849 1.54612 19.9189 1.56879 19.9642 1.61412C20.0322 1.63679 20.1002 1.68212 20.1682 1.75012C20.3495 1.84079 20.4402 2.06745 20.4402 2.43012C20.4402 2.70212 20.3949 2.97412 20.3042 3.24612C20.2815 3.38212 20.2249 3.48412 20.1342 3.55212C20.0662 3.59745 19.8849 3.63145 19.5902 3.65412C19.2955 3.65412 18.9102 3.64279 18.4342 3.62012C17.5729 3.50678 16.8589 3.45012 16.2922 3.45012C15.4989 3.45012 14.2749 3.56345 12.6202 3.79012C12.2122 3.81279 11.8269 3.86945 11.4642 3.96012C11.1242 4.05079 10.9089 4.10745 10.8182 4.13012C10.7049 4.13012 10.5349 4.30012 10.3082 4.64012C10.0815 4.98012 9.87749 5.41079 9.69616 5.93212C9.56016 6.13612 9.14083 7.12212 8.43816 8.89012C7.89416 10.1594 7.62216 10.7941 7.62216 10.7941C7.89416 10.8848 8.41549 10.9301 9.18616 10.9301C10.2062 10.9301 11.6909 10.8394 13.6402 10.6581C14.5242 10.4768 15.1249 10.4088 15.4422 10.4541C15.6462 10.4768 15.8162 10.6241 15.9522 10.8961C16.1109 11.1454 16.1902 11.4288 16.1902 11.7461C16.1902 11.9728 16.1449 12.1768 16.0542 12.3581C15.9635 12.5394 15.8389 12.6754 15.6802 12.7661C15.2042 13.0608 14.2182 13.2874 12.7222 13.4461C11.7249 13.5368 10.3535 13.5821 8.60816 13.5821C7.67883 13.5821 7.12349 13.5594 6.94216 13.5141C6.89683 13.5368 6.82883 13.6048 6.73816 13.7181C6.67016 13.8314 6.63616 13.9674 6.63616 14.1261C6.22816 14.8741 5.65016 16.2001 4.90216 18.1041C4.17683 20.0081 3.81416 21.1641 3.81416 21.5721C3.65549 21.9801 3.53083 22.4448 3.44016 22.9661C3.41749 23.0568 3.38349 23.1814 3.33816 23.3401C3.29283 23.4988 3.24749 23.6008 3.20216 23.6461C3.13416 23.9861 2.90749 24.1561 2.52216 24.1561C2.20483 24.1561 1.95549 24.0541 1.77416 23.8501ZM21.3441 8.78812C21.1175 8.62945 20.9361 8.42545 20.8001 8.17612C20.6641 7.92679 20.5848 7.68879 20.5621 7.46212C20.5395 7.23545 20.5621 7.09945 20.6301 7.05412C20.7661 6.89545 20.9021 6.68012 21.0381 6.40812C21.1741 6.13612 21.2761 5.94345 21.3441 5.83012C21.5255 5.42212 21.6728 5.12745 21.7861 4.94612C21.9448 4.62879 22.0921 4.45879 22.2281 4.43612C22.4095 4.34545 22.5568 4.30012 22.6701 4.30012C22.9648 4.30012 23.2821 4.40212 23.6221 4.60612C23.9848 4.81012 24.2568 5.04812 24.4381 5.32012C24.5968 5.68279 24.6761 6.00012 24.6761 6.27212C24.6761 6.81612 24.4155 7.41679 23.8941 8.07412C23.6675 8.36879 23.3955 8.59545 23.0781 8.75412C22.7608 8.91279 22.4435 8.99212 22.1261 8.99212C21.8088 8.99212 21.5481 8.92412 21.3441 8.78812ZM17.6721 22.4221C17.3548 22.1048 17.1961 21.5381 17.1961 20.7221C17.1961 20.2914 17.2528 19.9628 17.3661 19.7361C17.3661 19.6228 17.3888 19.4868 17.4341 19.3281C17.4795 19.1694 17.5021 19.0674 17.5021 19.0221C17.4795 18.8861 17.5701 18.5121 17.7741 17.9001C18.0461 17.2881 18.3861 16.3474 18.7941 15.0781C19.2248 13.8088 19.5195 12.9021 19.6781 12.3581C19.6781 12.2448 19.7235 12.1541 19.8141 12.0861C19.9048 11.9954 20.0408 11.9388 20.2221 11.9161C20.4715 11.8254 20.7888 11.9388 21.1741 12.2561C21.5595 12.5508 21.8768 12.8908 22.1261 13.2761C22.2621 13.4121 22.3301 13.5934 22.3301 13.8201C22.3301 14.1601 22.1828 14.6361 21.8881 15.2481C21.7748 15.4974 21.6615 15.8034 21.5481 16.1661C21.4575 16.5288 21.3781 16.8688 21.3101 17.1861C21.0381 17.7981 20.8228 18.3648 20.6641 18.8861C20.5961 19.1808 20.5508 19.4074 20.5281 19.5661C20.3695 20.4048 20.2221 20.9488 20.0861 21.1981C19.9501 21.7648 19.7575 22.1954 19.5081 22.4901C19.2588 22.7621 18.9755 22.8981 18.6581 22.8981C18.2728 22.8981 17.9441 22.7394 17.6721 22.4221ZM35.158 12.9021C35.2486 13.0834 35.294 13.3101 35.294 13.5821C35.294 14.1034 35.124 14.5908 34.784 15.0441C34.716 15.1574 34.5913 15.3388 34.41 15.5881C34.2286 15.8148 34.07 16.0528 33.934 16.3021C33.798 16.5514 33.696 16.8348 33.628 17.1521C33.56 17.5828 33.424 18.1041 33.22 18.7161C33.0386 19.3054 32.914 19.7021 32.846 19.9061C32.6646 20.3821 32.4606 21.0168 32.234 21.8101L31.69 23.9181C31.1913 25.6408 30.6133 26.9668 29.956 27.8961C29.2986 28.8481 28.6866 29.4828 28.12 29.8001C27.8253 29.9134 27.542 29.9701 27.27 29.9701C26.7713 29.9701 26.25 29.8001 25.706 29.4601C25.1846 29.1428 24.7313 28.7008 24.346 28.1341C24.0966 27.7941 23.7793 27.1481 23.394 26.1961C23.0086 25.2668 22.884 24.7681 23.02 24.7001C23.1106 24.3828 23.4393 24.2241 24.006 24.2241C24.278 24.2241 24.5273 24.2581 24.754 24.3261C24.9806 24.4168 25.1053 24.5188 25.128 24.6321C25.332 25.2214 25.5813 25.6748 25.876 25.9921C26.0573 26.2868 26.25 26.5134 26.454 26.6721C26.6806 26.8308 26.896 26.9101 27.1 26.9101C27.236 26.9101 27.3266 26.8874 27.372 26.8421C27.7346 26.5701 28.0066 26.2414 28.188 25.8561C28.392 25.4708 28.664 24.7568 29.004 23.7141C29.5253 21.9008 29.9333 20.6088 30.228 19.8381C30.296 19.5888 30.4093 19.3054 30.568 18.9881L29.956 19.4641C29.7293 19.6454 29.48 19.8381 29.208 20.0421C28.936 20.2234 28.6413 20.3821 28.324 20.5181C28.1653 20.7221 27.7686 20.8241 27.134 20.8241C26.658 20.8241 26.2046 20.7561 25.774 20.6201C25.3433 20.3934 25.0146 20.1328 24.788 19.8381C24.584 19.5434 24.3686 19.1014 24.142 18.5121C24.0513 18.3308 24.006 18.0474 24.006 17.6621C24.006 16.6874 24.2326 15.6448 24.686 14.5341C25.1166 13.6501 25.7966 12.7094 26.726 11.7121C27.6553 10.7148 28.46 10.1141 29.14 9.91012C29.684 9.63812 30.2506 9.50212 30.8399 9.50212C31.0893 9.50212 31.2706 9.52479 31.384 9.57012C31.7466 9.61545 32.03 9.69479 32.234 9.80812C32.438 9.92145 32.778 10.1821 33.254 10.5901C34.342 11.6781 34.9766 12.4488 35.158 12.9021ZM30.534 16.0981C30.942 15.5314 31.214 15.0214 31.35 14.5681C31.5086 14.1148 31.5653 13.6161 31.52 13.0721C31.4973 12.5054 31.248 12.2221 30.772 12.2221C30.296 12.2221 29.8766 12.3581 29.514 12.6301C29.174 12.9021 28.7206 13.3894 28.154 14.0921C27.814 14.5454 27.5306 15.0894 27.304 15.7241C27.1 16.2908 26.998 16.7781 26.998 17.1861C26.998 17.6848 27.134 17.9908 27.406 18.1041C28.1313 18.0814 28.698 17.9568 29.106 17.7301C29.514 17.5034 29.99 16.9594 30.534 16.0981ZM44.8907 23.2041C44.732 23.2948 44.5167 23.2608 44.2447 23.1021C43.9954 22.9434 43.746 22.7054 43.4967 22.3881C43.3154 22.0934 43.1907 21.8101 43.1227 21.5381C43.0547 21.2434 43.0207 20.8241 43.0207 20.2801L43.0547 19.4981C43.0547 19.2941 43.0207 19.1921 42.9527 19.1921C42.8847 19.1921 42.726 19.3054 42.4767 19.5321C42.25 19.7361 41.9554 20.0081 41.5927 20.3481C40.9127 21.0054 40.3347 21.5154 39.8587 21.8781C39.4054 22.2181 39.0314 22.3768 38.7367 22.3541C38.4874 22.3541 38.136 22.1388 37.6827 21.7081C37.2294 21.2548 36.9234 20.8241 36.7647 20.4161C36.6967 20.1441 36.6627 19.8381 36.6627 19.4981C36.6627 18.4554 36.8894 17.1861 37.3427 15.6901C37.796 14.1941 38.3287 12.9021 38.9407 11.8141C39.5527 10.7034 40.0627 10.1708 40.4707 10.2161C40.8334 10.2614 41.1507 10.4428 41.4227 10.7601C41.7174 11.0548 41.9554 11.4174 42.1367 11.8481C42.2047 11.9841 42.2387 12.0974 42.2387 12.1881C42.2387 12.3468 42.148 12.5054 41.9667 12.6641C41.6267 13.1174 41.196 13.8654 40.6747 14.9081C40.1534 15.9281 39.734 16.8688 39.4167 17.7301C39.0994 18.5688 39.02 18.9881 39.1787 18.9881C39.496 18.9881 39.7794 18.9088 40.0287 18.7501C40.3007 18.5914 40.652 18.3081 41.0827 17.9001C41.8987 17.0841 42.692 16.0414 43.4627 14.7721C44.4147 13.2534 44.936 12.3694 45.0267 12.1201L45.4007 11.4401C45.6274 10.9868 45.7974 10.6921 45.9107 10.5561C46.024 10.3974 46.16 10.2954 46.3187 10.2501H47.1007C47.2367 10.2728 47.3954 10.3748 47.5767 10.5561C47.7807 10.6468 47.9734 10.7714 48.1547 10.9301C48.336 11.0888 48.4267 11.2248 48.4267 11.3381L47.8827 12.5961L47.5767 13.3101C46.9647 14.6701 46.5 15.7581 46.1827 16.5741C45.8654 17.3674 45.6274 18.1948 45.4687 19.0561C45.446 19.1694 45.4347 19.3621 45.4347 19.6341C45.4347 20.3141 45.5027 20.7901 45.6387 21.0621C45.8427 21.4701 46.0467 21.7648 46.2507 21.9461C46.432 22.0821 46.432 22.2521 46.2507 22.4561C46.0694 22.6374 45.8087 22.8074 45.4687 22.9661C45.1514 23.1248 44.9587 23.2041 44.8907 23.2041ZM51.8307 22.2861C51.6494 22.2861 51.3887 22.2408 51.0487 22.1501C50.7314 22.0594 50.5387 21.9801 50.4707 21.9121C50.3347 21.7988 50.1987 21.6288 50.0627 21.4021C49.9267 21.1528 49.8587 20.8694 49.8587 20.5521C49.8587 20.0534 50.04 19.5321 50.4027 18.9881C50.5387 18.7161 50.8787 17.7754 51.4227 16.1661L52.1027 14.2961C52.148 13.9108 52.1254 13.6388 52.0347 13.4801C51.944 13.2988 51.7514 13.1968 51.4567 13.1741C51.2074 13.1741 51.026 13.0948 50.9127 12.9361C50.7994 12.7548 50.7427 12.4714 50.7427 12.0861C50.8107 11.4288 51.0714 10.9528 51.5247 10.6581C51.8874 10.4768 52.386 10.3861 53.0207 10.3861C53.5874 10.3861 53.9614 10.4654 54.1427 10.6241C54.324 10.7601 54.4827 11.0661 54.6187 11.5421C54.7547 12.0181 54.8567 12.4601 54.9247 12.8681C55.038 12.8001 55.3327 12.4941 55.8087 11.9501L56.5567 11.1681C56.942 10.8961 57.384 10.6354 57.8827 10.3861C58.3814 10.1368 58.7327 10.0121 58.9367 10.0121C59.1634 10.0121 59.458 10.1254 59.8207 10.3521C60.1834 10.5788 60.4214 10.7941 60.5347 10.9981C60.8747 11.6328 61.0447 12.1541 61.0447 12.5621C61.0447 12.8794 60.9654 13.1288 60.8067 13.3101C60.1947 14.0808 59.5147 14.4661 58.7667 14.4661C58.5854 14.4661 58.438 14.4548 58.3247 14.4321C58.2114 14.4094 58.0754 14.2508 57.9167 13.9561C57.758 13.6614 57.6674 13.4348 57.6447 13.2761C57.6447 13.2081 57.4747 13.3441 57.1347 13.6841C56.8174 14.0014 56.6134 14.2054 56.5227 14.2961L55.9447 14.9081C55.582 15.3388 55.208 15.9054 54.8227 16.6081C54.46 17.3108 53.916 18.3761 53.1907 19.8041L52.7487 20.8581C52.522 21.3794 52.352 21.7534 52.2387 21.9801C52.1254 22.1841 51.9894 22.2861 51.8307 22.2861ZM63.4707 22.3881C63.0853 22.4788 62.6207 22.2748 62.0767 21.7761C61.5327 21.2774 61.2153 20.8128 61.1247 20.3821C61.0793 20.1554 61.0567 19.9628 61.0567 19.8041C61.0567 18.9201 61.34 17.8548 61.9067 16.6081C62.4733 15.3388 63.2327 14.1488 64.1847 13.0381C65.1593 11.9274 66.2247 11.1228 67.3807 10.6241C67.8567 10.3748 68.1627 10.2501 68.2987 10.2501C68.4347 10.2501 68.7407 10.3748 69.2167 10.6241C69.67 10.7374 70.0327 10.8621 70.3047 10.9981C70.5767 11.1341 70.826 11.3494 71.0527 11.6441C71.3473 12.2334 71.5627 12.9588 71.6987 13.8201C71.8347 14.2961 71.9027 14.6361 71.9027 14.8401C71.9027 15.0214 71.8347 15.1801 71.6987 15.3161C71.676 15.3388 71.6307 15.3841 71.5627 15.4521C71.5173 15.5201 71.4947 15.5768 71.4947 15.6221C71.4947 15.6448 71.5173 15.6561 71.5627 15.6561C71.5627 15.6788 71.5513 15.7354 71.5287 15.8261C71.506 15.8941 71.4607 15.9961 71.3927 16.1321C71.1207 16.9934 70.9847 17.6621 70.9847 18.1381C70.9847 18.2968 71.0073 18.4894 71.0527 18.7161C71.2793 19.3054 71.5627 19.6001 71.9027 19.6001C72.22 19.6001 72.5827 19.3961 72.9907 18.9881C73.3307 18.7614 73.6707 18.6481 74.0107 18.6481C74.2147 18.6481 74.3167 18.7048 74.3167 18.8181C74.3393 18.8408 74.3847 18.8748 74.4527 18.9201C74.5207 18.9654 74.5887 18.9881 74.6567 18.9881C74.7473 18.9881 74.7927 19.0901 74.7927 19.2941C74.7927 19.4754 74.7473 19.7134 74.6567 20.0081C74.5887 20.3028 74.498 20.5408 74.3847 20.7221C74.226 20.8808 74.1013 21.0168 74.0107 21.1301C73.92 21.2434 73.8747 21.3341 73.8747 21.4021L73.3647 21.8781C72.934 22.1274 72.424 22.2521 71.8347 22.2521C71.2227 22.2521 70.7353 22.1274 70.3727 21.8781C70.01 21.6288 69.67 21.3228 69.3527 20.9601C69.0353 20.5748 68.8313 20.2348 68.7407 19.9401L68.5707 19.6001L67.5847 20.2461L66.7347 21.1301C66.5533 21.3568 66.3947 21.4701 66.2587 21.4701H65.9187C65.9187 21.6288 65.6013 21.8214 64.9667 22.0481C64.332 22.2748 63.8333 22.3881 63.4707 22.3881ZM64.1847 19.5321C64.434 19.5321 64.944 19.2488 65.7147 18.6821C66.508 18.0928 67.0407 17.6281 67.3127 17.2881C67.4033 17.1748 67.5167 17.0161 67.6527 16.8121C67.8113 16.5854 67.9473 16.4154 68.0607 16.3021C68.4233 15.8714 68.684 15.5314 68.8427 15.2821C69.024 15.0101 69.1147 14.7494 69.1147 14.5001C69.1147 14.3188 69.0353 14.0694 68.8767 13.7521C68.786 13.4801 68.65 13.3441 68.4687 13.3441C68.378 13.3441 68.1173 13.4234 67.6867 13.5821C67.256 13.8314 66.746 14.3414 66.1567 15.1121C65.59 15.8828 65.0913 16.6648 64.6607 17.4581C64.23 18.2514 64.0147 18.8294 64.0147 19.1921C64.0147 19.2601 64.0373 19.3281 64.0827 19.3961C64.128 19.4641 64.162 19.5094 64.1847 19.5321Z" fill="white"/>
</svg>
