<svg width="75" height="30" viewBox="0 0 75 30" fill="none" xmlns="http://www.w3.org/2000/svg">
<path d="M1.774 23.85C1.00333 23.4873 0.618 22.9433 0.618 22.218C0.618 21.9913 0.652 21.7647 0.72 21.538C0.901334 20.722 1.23 19.5547 1.706 18.036C2.20467 16.5173 2.64667 15.3727 3.032 14.602C3.19067 14.33 3.31533 14.0467 3.406 13.752C3.49667 13.4573 3.55333 13.2647 3.576 13.174C3.68933 12.766 3.75733 12.528 3.78 12.46L3.746 12.12C3.746 12.0293 3.76867 11.9387 3.814 11.848C3.85933 11.7573 3.93867 11.6553 4.052 11.542C4.36933 11.27 4.70933 10.7373 5.072 9.944L6.364 6.238L6.772 5.082C6.79467 4.99133 6.84 4.83267 6.908 4.606C6.976 4.37933 7.01 4.22067 7.01 4.13C7.01 4.03933 6.98733 3.994 6.942 3.994C6.76067 4.03933 6.398 4.07333 5.854 4.096C5.582 4.14133 5.378 4.17533 5.242 4.198C5.106 4.198 5.004 4.20933 4.936 4.232H4.698C4.26733 4.232 4.052 4.07333 4.052 3.756C4.12 3.348 4.256 2.96267 4.46 2.6C4.68667 2.23733 4.95867 2.04466 5.276 2.022L6.602 1.716C6.806 1.67067 7.08933 1.648 7.452 1.648C7.76933 1.648 8.098 1.682 8.438 1.75C8.71 1.56867 8.85733 1.41 8.88 1.274C8.97067 0.888666 9.17467 0.582666 9.492 0.356C9.80933 0.129332 10.138 0.015998 10.478 0.015998C10.75 0.015998 10.9767 0.0953317 11.158 0.253999C11.3393 0.389999 11.43 0.605332 11.43 0.899999C11.43 1.036 11.4187 1.138 11.396 1.206C11.396 1.22867 11.396 1.274 11.396 1.342C11.396 1.38733 11.464 1.41 11.6 1.41C11.8267 1.41 12.4953 1.28533 13.606 1.036C13.7873 1.01333 14.0933 0.990666 14.524 0.968C14.9773 0.922666 15.3513 0.899999 15.646 0.899999C16.0767 0.899999 16.4053 0.933999 16.632 1.002C16.836 0.956665 17.0173 0.933998 17.176 0.933998C17.3347 0.933998 17.4707 0.922665 17.584 0.899999C17.9693 0.899999 18.2073 0.865999 18.298 0.797998C18.502 0.843332 18.7287 0.888666 18.978 0.933998C19.25 0.956666 19.4427 0.990666 19.556 1.036C19.6693 1.08133 19.7713 1.138 19.862 1.206C19.93 1.29667 19.964 1.376 19.964 1.444C19.964 1.512 19.9527 1.55733 19.93 1.58L19.862 1.546C19.8847 1.546 19.9187 1.56867 19.964 1.614C20.032 1.63667 20.1 1.682 20.168 1.75C20.3493 1.84067 20.44 2.06733 20.44 2.43C20.44 2.702 20.3947 2.974 20.304 3.246C20.2813 3.382 20.2247 3.484 20.134 3.552C20.066 3.59733 19.8847 3.63133 19.59 3.654C19.2953 3.654 18.91 3.64267 18.434 3.62C17.5727 3.50666 16.8587 3.45 16.292 3.45C15.4987 3.45 14.2747 3.56333 12.62 3.79C12.212 3.81267 11.8267 3.86933 11.464 3.96C11.124 4.05067 10.9087 4.10733 10.818 4.13C10.7047 4.13 10.5347 4.3 10.308 4.64C10.0813 4.98 9.87733 5.41067 9.696 5.932C9.56 6.136 9.14067 7.122 8.438 8.89C7.894 10.1593 7.622 10.794 7.622 10.794C7.894 10.8847 8.41533 10.93 9.186 10.93C10.206 10.93 11.6907 10.8393 13.64 10.658C14.524 10.4767 15.1247 10.4087 15.442 10.454C15.646 10.4767 15.816 10.624 15.952 10.896C16.1107 11.1453 16.19 11.4287 16.19 11.746C16.19 11.9727 16.1447 12.1767 16.054 12.358C15.9633 12.5393 15.8387 12.6753 15.68 12.766C15.204 13.0607 14.218 13.2873 12.722 13.446C11.7247 13.5367 10.3533 13.582 8.608 13.582C7.67867 13.582 7.12333 13.5593 6.942 13.514C6.89667 13.5367 6.82867 13.6047 6.738 13.718C6.67 13.8313 6.636 13.9673 6.636 14.126C6.228 14.874 5.65 16.2 4.902 18.104C4.17667 20.008 3.814 21.164 3.814 21.572C3.65533 21.98 3.53067 22.4447 3.44 22.966C3.41733 23.0567 3.38333 23.1813 3.338 23.34C3.29267 23.4987 3.24733 23.6007 3.202 23.646C3.134 23.986 2.90733 24.156 2.522 24.156C2.20467 24.156 1.95533 24.054 1.774 23.85ZM21.3439 8.788C21.1173 8.62933 20.9359 8.42533 20.7999 8.176C20.6639 7.92667 20.5846 7.68867 20.5619 7.462C20.5393 7.23533 20.5619 7.09933 20.6299 7.054C20.7659 6.89533 20.9019 6.68 21.0379 6.408C21.1739 6.136 21.2759 5.94333 21.3439 5.83C21.5253 5.422 21.6726 5.12733 21.7859 4.946C21.9446 4.62867 22.0919 4.45867 22.2279 4.436C22.4093 4.34533 22.5566 4.3 22.6699 4.3C22.9646 4.3 23.2819 4.402 23.6219 4.606C23.9846 4.81 24.2566 5.048 24.4379 5.32C24.5966 5.68267 24.6759 6 24.6759 6.272C24.6759 6.816 24.4153 7.41667 23.8939 8.074C23.6673 8.36867 23.3953 8.59533 23.0779 8.754C22.7606 8.91267 22.4433 8.992 22.1259 8.992C21.8086 8.992 21.5479 8.924 21.3439 8.788ZM17.6719 22.422C17.3546 22.1047 17.1959 21.538 17.1959 20.722C17.1959 20.2913 17.2526 19.9627 17.3659 19.736C17.3659 19.6227 17.3886 19.4867 17.4339 19.328C17.4793 19.1693 17.5019 19.0673 17.5019 19.022C17.4793 18.886 17.5699 18.512 17.7739 17.9C18.0459 17.288 18.3859 16.3473 18.7939 15.078C19.2246 13.8087 19.5193 12.902 19.6779 12.358C19.6779 12.2447 19.7233 12.154 19.8139 12.086C19.9046 11.9953 20.0406 11.9387 20.2219 11.916C20.4713 11.8253 20.7886 11.9387 21.1739 12.256C21.5593 12.5507 21.8766 12.8907 22.1259 13.276C22.2619 13.412 22.3299 13.5933 22.3299 13.82C22.3299 14.16 22.1826 14.636 21.8879 15.248C21.7746 15.4973 21.6613 15.8033 21.5479 16.166C21.4573 16.5287 21.3779 16.8687 21.3099 17.186C21.0379 17.798 20.8226 18.3647 20.6639 18.886C20.5959 19.1807 20.5506 19.4073 20.5279 19.566C20.3693 20.4047 20.2219 20.9487 20.0859 21.198C19.9499 21.7647 19.7573 22.1953 19.5079 22.49C19.2586 22.762 18.9753 22.898 18.6579 22.898C18.2726 22.898 17.9439 22.7393 17.6719 22.422ZM35.1578 12.902C35.2484 13.0833 35.2938 13.31 35.2938 13.582C35.2938 14.1033 35.1238 14.5907 34.7838 15.044C34.7158 15.1573 34.5911 15.3387 34.4098 15.588C34.2284 15.8147 34.0698 16.0527 33.9338 16.302C33.7978 16.5513 33.6958 16.8347 33.6278 17.152C33.5598 17.5827 33.4238 18.104 33.2198 18.716C33.0384 19.3053 32.9138 19.702 32.8458 19.906C32.6644 20.382 32.4604 21.0167 32.2338 21.81L31.6898 23.918C31.1911 25.6407 30.6131 26.9667 29.9558 27.896C29.2984 28.848 28.6864 29.4827 28.1198 29.8C27.8251 29.9133 27.5418 29.97 27.2698 29.97C26.7711 29.97 26.2498 29.8 25.7058 29.46C25.1844 29.1427 24.7311 28.7007 24.3458 28.134C24.0964 27.794 23.7791 27.148 23.3938 26.196C23.0084 25.2667 22.8838 24.768 23.0198 24.7C23.1104 24.3827 23.4391 24.224 24.0058 24.224C24.2778 24.224 24.5271 24.258 24.7538 24.326C24.9804 24.4167 25.1051 24.5187 25.1278 24.632C25.3318 25.2213 25.5811 25.6747 25.8758 25.992C26.0571 26.2867 26.2498 26.5133 26.4538 26.672C26.6804 26.8307 26.8958 26.91 27.0998 26.91C27.2358 26.91 27.3264 26.8873 27.3718 26.842C27.7344 26.57 28.0064 26.2413 28.1878 25.856C28.3918 25.4707 28.6638 24.7567 29.0038 23.714C29.5251 21.9007 29.9331 20.6087 30.2278 19.838C30.2958 19.5887 30.4091 19.3053 30.5678 18.988L29.9558 19.464C29.7291 19.6453 29.4798 19.838 29.2078 20.042C28.9358 20.2233 28.6411 20.382 28.3238 20.518C28.1651 20.722 27.7684 20.824 27.1338 20.824C26.6578 20.824 26.2044 20.756 25.7738 20.62C25.3431 20.3933 25.0144 20.1327 24.7878 19.838C24.5838 19.5433 24.3684 19.1013 24.1418 18.512C24.0511 18.3307 24.0058 18.0473 24.0058 17.662C24.0058 16.6873 24.2324 15.6447 24.6858 14.534C25.1164 13.65 25.7964 12.7093 26.7258 11.712C27.6551 10.7147 28.4598 10.114 29.1398 9.91C29.6838 9.638 30.2504 9.502 30.8397 9.502C31.0891 9.502 31.2704 9.52467 31.3838 9.57C31.7464 9.61533 32.0298 9.69467 32.2338 9.808C32.4378 9.92133 32.7778 10.182 33.2538 10.59C34.3418 11.678 34.9764 12.4487 35.1578 12.902ZM30.5338 16.098C30.9418 15.5313 31.2138 15.0213 31.3498 14.568C31.5084 14.1147 31.5651 13.616 31.5198 13.072C31.4971 12.5053 31.2478 12.222 30.7718 12.222C30.2958 12.222 29.8764 12.358 29.5138 12.63C29.1738 12.902 28.7204 13.3893 28.1538 14.092C27.8138 14.5453 27.5304 15.0893 27.3038 15.724C27.0998 16.2907 26.9978 16.778 26.9978 17.186C26.9978 17.6847 27.1338 17.9907 27.4058 18.104C28.1311 18.0813 28.6978 17.9567 29.1058 17.73C29.5138 17.5033 29.9898 16.9593 30.5338 16.098ZM44.8905 23.204C44.7318 23.2947 44.5165 23.2607 44.2445 23.102C43.9952 22.9433 43.7458 22.7053 43.4965 22.388C43.3152 22.0933 43.1905 21.81 43.1225 21.538C43.0545 21.2433 43.0205 20.824 43.0205 20.28L43.0545 19.498C43.0545 19.294 43.0205 19.192 42.9525 19.192C42.8845 19.192 42.7258 19.3053 42.4765 19.532C42.2498 19.736 41.9552 20.008 41.5925 20.348C40.9125 21.0053 40.3345 21.5153 39.8585 21.878C39.4052 22.218 39.0312 22.3767 38.7365 22.354C38.4872 22.354 38.1358 22.1387 37.6825 21.708C37.2292 21.2547 36.9232 20.824 36.7645 20.416C36.6965 20.144 36.6625 19.838 36.6625 19.498C36.6625 18.4553 36.8892 17.186 37.3425 15.69C37.7958 14.194 38.3285 12.902 38.9405 11.814C39.5525 10.7033 40.0625 10.1707 40.4705 10.216C40.8332 10.2613 41.1505 10.4427 41.4225 10.76C41.7172 11.0547 41.9552 11.4173 42.1365 11.848C42.2045 11.984 42.2385 12.0973 42.2385 12.188C42.2385 12.3467 42.1478 12.5053 41.9665 12.664C41.6265 13.1173 41.1958 13.8653 40.6745 14.908C40.1532 15.928 39.7338 16.8687 39.4165 17.73C39.0992 18.5687 39.0198 18.988 39.1785 18.988C39.4958 18.988 39.7792 18.9087 40.0285 18.75C40.3005 18.5913 40.6518 18.308 41.0825 17.9C41.8985 17.084 42.6918 16.0413 43.4625 14.772C44.4145 13.2533 44.9358 12.3693 45.0265 12.12L45.4005 11.44C45.6272 10.9867 45.7972 10.692 45.9105 10.556C46.0238 10.3973 46.1598 10.2953 46.3185 10.25H47.1005C47.2365 10.2727 47.3952 10.3747 47.5765 10.556C47.7805 10.6467 47.9732 10.7713 48.1545 10.93C48.3358 11.0887 48.4265 11.2247 48.4265 11.338L47.8825 12.596L47.5765 13.31C46.9645 14.67 46.4998 15.758 46.1825 16.574C45.8652 17.3673 45.6272 18.1947 45.4685 19.056C45.4458 19.1693 45.4345 19.362 45.4345 19.634C45.4345 20.314 45.5025 20.79 45.6385 21.062C45.8425 21.47 46.0465 21.7647 46.2505 21.946C46.4318 22.082 46.4318 22.252 46.2505 22.456C46.0692 22.6373 45.8085 22.8073 45.4685 22.966C45.1512 23.1247 44.9585 23.204 44.8905 23.204ZM51.8305 22.286C51.6492 22.286 51.3885 22.2407 51.0485 22.15C50.7312 22.0593 50.5385 21.98 50.4705 21.912C50.3345 21.7987 50.1985 21.6287 50.0625 21.402C49.9265 21.1527 49.8585 20.8693 49.8585 20.552C49.8585 20.0533 50.0398 19.532 50.4025 18.988C50.5385 18.716 50.8785 17.7753 51.4225 16.166L52.1025 14.296C52.1478 13.9107 52.1252 13.6387 52.0345 13.48C51.9438 13.2987 51.7512 13.1967 51.4565 13.174C51.2072 13.174 51.0258 13.0947 50.9125 12.936C50.7992 12.7547 50.7425 12.4713 50.7425 12.086C50.8105 11.4287 51.0712 10.9527 51.5245 10.658C51.8872 10.4767 52.3858 10.386 53.0205 10.386C53.5872 10.386 53.9612 10.4653 54.1425 10.624C54.3238 10.76 54.4825 11.066 54.6185 11.542C54.7545 12.018 54.8565 12.46 54.9245 12.868C55.0378 12.8 55.3325 12.494 55.8085 11.95L56.5565 11.168C56.9418 10.896 57.3838 10.6353 57.8825 10.386C58.3812 10.1367 58.7325 10.012 58.9365 10.012C59.1632 10.012 59.4578 10.1253 59.8205 10.352C60.1832 10.5787 60.4212 10.794 60.5345 10.998C60.8745 11.6327 61.0445 12.154 61.0445 12.562C61.0445 12.8793 60.9652 13.1287 60.8065 13.31C60.1945 14.0807 59.5145 14.466 58.7665 14.466C58.5852 14.466 58.4378 14.4547 58.3245 14.432C58.2112 14.4093 58.0752 14.2507 57.9165 13.956C57.7578 13.6613 57.6672 13.4347 57.6445 13.276C57.6445 13.208 57.4745 13.344 57.1345 13.684C56.8172 14.0013 56.6132 14.2053 56.5225 14.296L55.9445 14.908C55.5818 15.3387 55.2078 15.9053 54.8225 16.608C54.4598 17.3107 53.9158 18.376 53.1905 19.804L52.7485 20.858C52.5218 21.3793 52.3518 21.7533 52.2385 21.98C52.1252 22.184 51.9892 22.286 51.8305 22.286ZM63.4705 22.388C63.0851 22.4787 62.6205 22.2747 62.0765 21.776C61.5325 21.2773 61.2151 20.8127 61.1245 20.382C61.0791 20.1553 61.0565 19.9627 61.0565 19.804C61.0565 18.92 61.3398 17.8547 61.9065 16.608C62.4731 15.3387 63.2325 14.1487 64.1845 13.038C65.1591 11.9273 66.2245 11.1227 67.3805 10.624C67.8565 10.3747 68.1625 10.25 68.2985 10.25C68.4345 10.25 68.7405 10.3747 69.2165 10.624C69.6698 10.7373 70.0325 10.862 70.3045 10.998C70.5765 11.134 70.8258 11.3493 71.0525 11.644C71.3471 12.2333 71.5625 12.9587 71.6985 13.82C71.8345 14.296 71.9025 14.636 71.9025 14.84C71.9025 15.0213 71.8345 15.18 71.6985 15.316C71.6758 15.3387 71.6305 15.384 71.5625 15.452C71.5171 15.52 71.4945 15.5767 71.4945 15.622C71.4945 15.6447 71.5171 15.656 71.5625 15.656C71.5625 15.6787 71.5511 15.7353 71.5285 15.826C71.5058 15.894 71.4605 15.996 71.3925 16.132C71.1205 16.9933 70.9845 17.662 70.9845 18.138C70.9845 18.2967 71.0071 18.4893 71.0525 18.716C71.2791 19.3053 71.5625 19.6 71.9025 19.6C72.2198 19.6 72.5825 19.396 72.9905 18.988C73.3305 18.7613 73.6705 18.648 74.0105 18.648C74.2145 18.648 74.3165 18.7047 74.3165 18.818C74.3391 18.8407 74.3845 18.8747 74.4525 18.92C74.5205 18.9653 74.5885 18.988 74.6565 18.988C74.7471 18.988 74.7925 19.09 74.7925 19.294C74.7925 19.4753 74.7471 19.7133 74.6565 20.008C74.5885 20.3027 74.4978 20.5407 74.3845 20.722C74.2258 20.8807 74.1011 21.0167 74.0105 21.13C73.9198 21.2433 73.8745 21.334 73.8745 21.402L73.3645 21.878C72.9338 22.1273 72.4238 22.252 71.8345 22.252C71.2225 22.252 70.7351 22.1273 70.3725 21.878C70.0098 21.6287 69.6698 21.3227 69.3525 20.96C69.0351 20.5747 68.8311 20.2347 68.7405 19.94L68.5705 19.6L67.5845 20.246L66.7345 21.13C66.5531 21.3567 66.3945 21.47 66.2585 21.47H65.9185C65.9185 21.6287 65.6011 21.8213 64.9665 22.048C64.3318 22.2747 63.8331 22.388 63.4705 22.388ZM64.1845 19.532C64.4338 19.532 64.9438 19.2487 65.7145 18.682C66.5078 18.0927 67.0405 17.628 67.3125 17.288C67.4031 17.1747 67.5165 17.016 67.6525 16.812C67.8111 16.5853 67.9471 16.4153 68.0605 16.302C68.4231 15.8713 68.6838 15.5313 68.8425 15.282C69.0238 15.01 69.1145 14.7493 69.1145 14.5C69.1145 14.3187 69.0351 14.0693 68.8765 13.752C68.7858 13.48 68.6498 13.344 68.4685 13.344C68.3778 13.344 68.1171 13.4233 67.6865 13.582C67.2558 13.8313 66.7458 14.3413 66.1565 15.112C65.5898 15.8827 65.0911 16.6647 64.6605 17.458C64.2298 18.2513 64.0145 18.8293 64.0145 19.192C64.0145 19.26 64.0371 19.328 64.0825 19.396C64.1278 19.464 64.1618 19.5093 64.1845 19.532Z" fill="black"/>
</svg>
